<svg width="30" height="31" viewBox="0 0 30 31" fill="none" xmlns="http://www.w3.org/2000/svg">
<path d="M9 30.3519C6.47222 30.3519 4.34 29.4841 2.60333 27.7485C0.866667 26.013 -0.00111005 23.8808 1.06564e-06 21.3519C1.06564e-06 20.2963 0.180557 19.2685 0.541668 18.2685C0.902779 17.2685 1.41667 16.3658 2.08333 15.5602L8 8.4352L3.95833 0.351868H26.0417L22 8.4352L27.9167 15.5602C28.5833 16.3658 29.0972 17.2685 29.4583 18.2685C29.8194 19.2685 30 20.2963 30 21.3519C30 23.8796 29.125 26.0119 27.375 27.7485C25.625 29.4852 23.5 30.353 21 30.3519H9ZM15 22.0185C14.0833 22.0185 13.2989 21.6924 12.6467 21.0402C11.9944 20.388 11.6678 19.603 11.6667 18.6852C11.6656 17.7674 11.9922 16.983 12.6467 16.3319C13.3011 15.6808 14.0856 15.3541 15 15.3519C15.9144 15.3496 16.6994 15.6763 17.355 16.3319C18.0106 16.9874 18.3367 17.7719 18.3333 18.6852C18.33 19.5985 18.0039 20.3835 17.355 21.0402C16.7061 21.6969 15.9211 22.023 15 22.0185ZM11.0417 7.01853H18.9583L20.625 3.6852H9.375L11.0417 7.01853ZM9 27.0185H21C22.5833 27.0185 23.9239 26.4702 25.0217 25.3735C26.1194 24.2769 26.6678 22.9363 26.6667 21.3519C26.6667 20.6852 26.5483 20.0396 26.3117 19.4152C26.075 18.7908 25.7489 18.228 25.3333 17.7269L19.2083 10.3519H10.8333L4.66667 17.6852C4.25 18.1852 3.92389 18.7546 3.68833 19.3935C3.45278 20.0324 3.33445 20.6852 3.33333 21.3519C3.33333 22.9352 3.88222 24.2758 4.98 25.3735C6.07778 26.4713 7.41778 27.0196 9 27.0185Z" fill="#3E5179"/>
</svg>
