<svg width="32" height="35" viewBox="0 0 32 35" fill="none" xmlns="http://www.w3.org/2000/svg">
<path d="M10.3333 34.8518L6.99992 32.3518V25.6852H5.33326C4.41659 25.6852 3.63215 25.3591 2.97992 24.7068C2.3277 24.0546 2.00104 23.2696 1.99992 22.3518V9.85185C1.5277 9.85185 1.13215 9.69185 0.813258 9.37185C0.494369 9.05185 0.334369 8.65629 0.333258 8.18518C0.332147 7.71407 0.492147 7.31851 0.813258 6.99851C1.13437 6.67851 1.52992 6.51851 1.99992 6.51851H6.99992V4.01851H6.16659C5.69437 4.01851 5.29881 3.85851 4.97992 3.53851C4.66104 3.21851 4.50104 2.82296 4.49992 2.35185C4.49881 1.88074 4.65881 1.48518 4.97992 1.16518C5.30104 0.845181 5.69659 0.685181 6.16659 0.685181H11.1666C11.6388 0.685181 12.0349 0.845181 12.3549 1.16518C12.6749 1.48518 12.8344 1.88074 12.8333 2.35185C12.8321 2.82296 12.6721 3.21907 12.3533 3.54018C12.0344 3.86129 11.6388 4.02074 11.1666 4.01851H10.3333V6.51851H15.3333C15.8055 6.51851 16.2016 6.67851 16.5216 6.99851C16.8416 7.31851 17.001 7.71407 16.9999 8.18518C16.9988 8.65629 16.8388 9.0524 16.5199 9.37351C16.201 9.69462 15.8055 9.85407 15.3333 9.85185V22.3518C15.3333 23.2685 15.0071 24.0535 14.3549 24.7068C13.7027 25.3602 12.9177 25.6863 11.9999 25.6852H10.3333V34.8518ZM25.3333 34.0185C23.4999 34.0185 21.9305 33.3657 20.6249 32.0602C19.3194 30.7546 18.6666 29.1852 18.6666 27.3518V14.0185C18.6666 12.1852 19.3194 10.6157 20.6249 9.31018C21.9305 8.00462 23.4999 7.35185 25.3333 7.35185C27.1666 7.35185 28.736 8.00462 30.0416 9.31018C31.3472 10.6157 31.9999 12.1852 31.9999 14.0185V27.3518C31.9999 29.1852 31.3472 30.7546 30.0416 32.0602C28.736 33.3657 27.1666 34.0185 25.3333 34.0185ZM5.33326 22.3518H11.9999V19.8518H9.08326C8.74992 19.8518 8.45826 19.7268 8.20826 19.4768C7.95826 19.2268 7.83326 18.9352 7.83326 18.6018C7.83326 18.2685 7.95826 17.9768 8.20826 17.7268C8.45826 17.4768 8.74992 17.3518 9.08326 17.3518H11.9999V14.8518H9.08326C8.74992 14.8518 8.45826 14.7268 8.20826 14.4768C7.95826 14.2268 7.83326 13.9352 7.83326 13.6018C7.83326 13.2685 7.95826 12.9768 8.20826 12.7268C8.45826 12.4768 8.74992 12.3518 9.08326 12.3518H11.9999V9.85185H5.33326V22.3518ZM25.3333 10.6852C24.4166 10.6852 23.6321 11.0118 22.9799 11.6652C22.3277 12.3185 22.001 13.103 21.9999 14.0185H28.6666C28.6666 13.1018 28.3405 12.3174 27.6883 11.6652C27.036 11.013 26.251 10.6863 25.3333 10.6852ZM21.9999 24.0185H28.6666V17.3518H21.9999V24.0185ZM25.3333 30.6852C26.2499 30.6852 27.0349 30.3591 27.6883 29.7068C28.3416 29.0546 28.6677 28.2696 28.6666 27.3518H21.9999C21.9999 28.2685 22.3266 29.0535 22.9799 29.7068C23.6333 30.3602 24.4177 30.6863 25.3333 30.6852Z" fill="#3E5179"/>
</svg>
