<svg width="32" height="35" viewBox="0 0 32 35" fill="none" xmlns="http://www.w3.org/2000/svg">
<path d="M5 34.0185V26.8518C3.41667 25.4074 2.18778 23.7202 1.31333 21.7902C0.438889 19.8602 0.00111111 17.8252 0 15.6852C0 11.5185 1.45833 7.97685 4.375 5.06018C7.29167 2.14351 10.8333 0.685181 15 0.685181C18.4722 0.685181 21.5489 1.70629 24.23 3.74851C26.9111 5.79074 28.6539 8.45018 29.4583 11.7268L31.625 20.2685C31.7639 20.7963 31.6667 21.2757 31.3333 21.7068C31 22.138 30.5556 22.353 30 22.3518H26.6667V27.3518C26.6667 28.2685 26.3406 29.0535 25.6883 29.7068C25.0361 30.3602 24.2511 30.6863 23.3333 30.6852H20V34.0185H16.6667V27.3518H23.3333V19.0185H27.8333L26.25 12.5602C25.6111 10.0324 24.25 7.97685 22.1667 6.39351C20.0833 4.81018 17.6944 4.01851 15 4.01851C11.7778 4.01851 9.02778 5.14351 6.75 7.39351C4.47222 9.64351 3.33333 12.3796 3.33333 15.6018C3.33333 17.2685 3.67389 18.8518 4.355 20.3518C5.03611 21.8518 6.00111 23.1852 7.25 24.3518L8.33333 25.3518V34.0185H5ZM13.3333 22.3518H16.6667L16.9167 20.2685C17.1389 20.1852 17.3406 20.088 17.5217 19.9768C17.7028 19.8657 17.8622 19.7407 18 19.6018L19.9167 20.4352L21.5833 17.6018L19.9167 16.3518C19.9722 16.1296 20 15.9074 20 15.6852C20 15.463 19.9722 15.2407 19.9167 15.0185L21.5833 13.7685L19.9167 10.9352L18 11.7685C17.8611 11.6296 17.7011 11.5046 17.52 11.3935C17.3389 11.2824 17.1378 11.1852 16.9167 11.1018L16.6667 9.01851H13.3333L13.0833 11.1018C12.8611 11.1852 12.6594 11.2824 12.4783 11.3935C12.2972 11.5046 12.1378 11.6296 12 11.7685L10.0833 10.9352L8.41667 13.7685L10.0833 15.0185C10.0278 15.2407 10 15.463 10 15.6852C10 15.9074 10.0278 16.1296 10.0833 16.3518L8.41667 17.6018L10.0833 20.4352L12 19.6018C12.1389 19.7407 12.2989 19.8657 12.48 19.9768C12.6611 20.088 12.8622 20.1852 13.0833 20.2685L13.3333 22.3518ZM15 18.1852C14.3056 18.1852 13.7156 17.9424 13.23 17.4568C12.7444 16.9713 12.5011 16.3807 12.5 15.6852C12.4989 14.9896 12.7422 14.3996 13.23 13.9152C13.7178 13.4307 14.3078 13.1874 15 13.1852C15.6922 13.183 16.2828 13.4263 16.7717 13.9152C17.2606 14.4041 17.5033 14.9941 17.5 15.6852C17.4967 16.3763 17.2539 16.9668 16.7717 17.4568C16.2894 17.9468 15.6989 18.1896 15 18.1852Z" fill="#3E5179"/>
</svg>
