<svg width="34" height="33" viewBox="0 0 34 33" fill="none" xmlns="http://www.w3.org/2000/svg">
<path d="M3.66659 32.3518C2.74992 32.3518 1.96547 32.0257 1.31325 31.3735C0.66103 30.7213 0.334363 29.9363 0.333252 29.0185V10.6852C0.333252 9.76851 0.659919 8.98407 1.31325 8.33185C1.96659 7.67962 2.75103 7.35296 3.66659 7.35185H10.3333V4.01851C10.3333 3.10185 10.6599 2.3174 11.3133 1.66518C11.9666 1.01296 12.751 0.686292 13.6666 0.685181H20.3333C21.2499 0.685181 22.0349 1.01185 22.6883 1.66518C23.3416 2.31851 23.6677 3.10296 23.6666 4.01851V7.35185H30.3333C31.2499 7.35185 32.0349 7.67851 32.6883 8.33185C33.3416 8.98518 33.6677 9.76962 33.6666 10.6852V29.0185C33.6666 29.9352 33.3405 30.7202 32.6883 31.3735C32.036 32.0268 31.251 32.353 30.3333 32.3518H3.66659ZM13.6666 7.35185H20.3333V4.01851H13.6666V7.35185ZM30.3333 22.3518H21.9999V24.0185C21.9999 24.4907 21.8399 24.8868 21.5199 25.2068C21.1999 25.5268 20.8044 25.6863 20.3333 25.6852H13.6666C13.1944 25.6852 12.7988 25.5252 12.4799 25.2052C12.161 24.8852 12.001 24.4896 11.9999 24.0185V22.3518H3.66659V29.0185H30.3333V22.3518ZM15.3333 22.3518H18.6666V19.0185H15.3333V22.3518ZM3.66659 19.0185H11.9999V17.3518C11.9999 16.8796 12.1599 16.4841 12.4799 16.1652C12.7999 15.8463 13.1955 15.6863 13.6666 15.6852H20.3333C20.8055 15.6852 21.2016 15.8452 21.5216 16.1652C21.8416 16.4852 22.001 16.8807 21.9999 17.3518V19.0185H30.3333V10.6852H3.66659V19.0185Z" fill="#3E5179"/>
</svg>
