<svg width="24" height="24" viewBox="0 0 24 24" fill="none" xmlns="http://www.w3.org/2000/svg">
<g clip-path="url(#clip0_28_1087)">
<path fill-rule="evenodd" clip-rule="evenodd" d="M19.9394 1.4618e-05C20.5244 1.4618e-05 20.9999 0.475515 20.9999 1.06051V3.00001H22.9394C23.1492 2.99997 23.3543 3.06214 23.5287 3.17867C23.7032 3.2952 23.8391 3.46084 23.9194 3.65465C23.9997 3.84846 24.0207 4.06172 23.9798 4.26747C23.9388 4.47322 23.8378 4.6622 23.6894 4.81051L21.4994 7.00051C21.1797 7.31957 20.7466 7.49914 20.2949 7.50001H18.0899L12.7949 12.795C12.5817 12.9937 12.2996 13.1019 12.0081 13.0968C11.7167 13.0916 11.4386 12.9736 11.2325 12.7674C11.0264 12.5613 10.9083 12.2832 10.9032 11.9918C10.898 11.7003 11.0062 11.4183 11.2049 11.205L16.4999 5.91001V3.70501C16.4999 3.25351 16.6799 2.82001 16.9994 2.49901L19.1894 0.309015C19.2876 0.210076 19.4044 0.131667 19.5332 0.0783579C19.662 0.0250489 19.8001 -0.00209296 19.9394 -0.00148538M3.74993 12C3.74977 10.7768 4.02161 9.5689 4.54576 8.4637C5.06992 7.3585 5.83328 6.38368 6.78057 5.60983C7.72785 4.83597 8.83537 4.28245 10.0229 3.98933C11.2105 3.6962 12.4484 3.67082 13.6469 3.91501C13.9378 3.97052 14.2388 3.90909 14.4847 3.74406C14.7306 3.57902 14.9015 3.3237 14.9604 3.03347C15.0192 2.74324 14.9612 2.44151 14.799 2.19375C14.6368 1.94599 14.3835 1.77218 14.0939 1.71001C11.8824 1.26039 9.58491 1.53525 7.54188 2.49385C5.49885 3.45244 3.81903 5.04377 2.75136 7.03198C1.6837 9.02019 1.28502 11.2995 1.61441 13.5321C1.9438 15.7646 2.98372 17.8317 4.58006 19.4268C6.17641 21.022 8.24421 22.0604 10.477 22.3882C12.7098 22.7159 14.9888 22.3156 16.9763 21.2465C18.9637 20.1774 20.5538 18.4964 21.5109 16.4526C22.468 14.4089 22.7412 12.1112 22.2899 9.90001C22.2304 9.60761 22.0573 9.35081 21.8084 9.18611C21.5596 9.02141 21.2556 8.96229 20.9632 9.02176C20.6708 9.08124 20.414 9.25443 20.2493 9.50325C20.0846 9.75206 20.0254 10.0561 20.0849 10.3485C20.1939 10.8815 20.2489 11.432 20.2499 12C20.2499 14.1881 19.3807 16.2865 17.8336 17.8336C16.2864 19.3808 14.188 20.25 11.9999 20.25C9.81189 20.25 7.71347 19.3808 6.16629 17.8336C4.61912 16.2865 3.74993 14.1881 3.74993 12ZM11.7959 8.25601C12.0939 8.2401 12.3733 8.10647 12.5728 7.88452C12.7722 7.66257 12.8753 7.37049 12.8594 7.07251C12.8435 6.77454 12.7099 6.4951 12.4879 6.29565C12.266 6.09621 11.9739 5.9931 11.6759 6.00901C10.5238 6.0711 9.41404 6.46406 8.47956 7.1408C7.54509 7.81754 6.82555 8.74936 6.40717 9.82462C5.98879 10.8999 5.88931 12.073 6.12064 13.2033C6.35197 14.3337 6.90431 15.3734 7.71147 16.1978C8.51863 17.0222 9.54638 17.5965 10.6716 17.8517C11.7968 18.1069 12.9717 18.0323 14.0556 17.6368C15.1395 17.2413 16.0863 16.5416 16.7827 15.6217C17.4791 14.7018 17.8955 13.6006 17.9819 12.45C18.004 12.1524 17.907 11.8583 17.7122 11.6323C17.5174 11.4062 17.2407 11.2668 16.9432 11.2448C16.6456 11.2227 16.3514 11.3197 16.1254 11.5145C15.8994 11.7093 15.76 11.9859 15.7379 12.2835C15.6832 13.0022 15.4225 13.6899 14.9871 14.2643C14.5516 14.8387 13.9599 15.2754 13.2826 15.5222C12.6054 15.769 11.8714 15.8154 11.1685 15.6558C10.4656 15.4962 9.82359 15.1375 9.31931 14.6224C8.81503 14.1074 8.46986 13.458 8.32513 12.7519C8.18039 12.0458 8.24222 11.3129 8.50321 10.641C8.7642 9.96914 9.21329 9.38672 9.79673 8.96346C10.3802 8.54021 11.0732 8.29408 11.7929 8.25451" fill="#214662"/>
</g>
<defs>
<clipPath id="clip0_28_1087">
<rect width="24" height="24" fill="white"/>
</clipPath>
</defs>
</svg>
