<svg width="32" height="32" viewBox="0 0 32 32" fill="none" xmlns="http://www.w3.org/2000/svg">
<mask id="mask0_150_452" style="mask-type:luminance" maskUnits="userSpaceOnUse" x="1" y="1" width="30" height="30">
<path fill-rule="evenodd" clip-rule="evenodd" d="M5.33366 7.99984C6.0409 7.99984 6.71918 7.71889 7.21928 7.21879C7.71937 6.71869 8.00033 6.04041 8.00033 5.33317C8.00033 4.62593 7.71937 3.94765 7.21928 3.44755C6.71918 2.94746 6.0409 2.6665 5.33366 2.6665C4.62641 2.6665 3.94814 2.94746 3.44804 3.44755C2.94794 3.94765 2.66699 4.62593 2.66699 5.33317C2.66699 6.04041 2.94794 6.71869 3.44804 7.21879C3.94814 7.71889 4.62641 7.99984 5.33366 7.99984ZM6.66699 27.9998C7.72786 27.9998 8.74527 27.5784 9.49542 26.8283C10.2456 26.0781 10.667 25.0607 10.667 23.9998C10.667 22.939 10.2456 21.9216 9.49542 21.1714C8.74527 20.4213 7.72786 19.9998 6.66699 19.9998C5.60613 19.9998 4.58871 20.4213 3.83857 21.1714C3.08842 21.9216 2.66699 22.939 2.66699 23.9998C2.66699 25.0607 3.08842 26.0781 3.83857 26.8283C4.58871 27.5784 5.60613 27.9998 6.66699 27.9998ZM25.3337 29.3332C26.3945 29.3332 27.4119 28.9117 28.1621 28.1616C28.9122 27.4115 29.3337 26.394 29.3337 25.3332C29.3337 24.2723 28.9122 23.2549 28.1621 22.5047C27.4119 21.7546 26.3945 21.3332 25.3337 21.3332C24.2728 21.3332 23.2554 21.7546 22.5052 22.5047C21.7551 23.2549 21.3337 24.2723 21.3337 25.3332C21.3337 26.394 21.7551 27.4115 22.5052 28.1616C23.2554 28.9117 24.2728 29.3332 25.3337 29.3332ZM14.667 18.6665C16.0815 18.6665 17.438 18.1046 18.4382 17.1044C19.4384 16.1042 20.0003 14.7477 20.0003 13.3332C20.0003 11.9187 19.4384 10.5621 18.4382 9.56193C17.438 8.56174 16.0815 7.99984 14.667 7.99984C13.2525 7.99984 11.896 8.56174 10.8958 9.56193C9.89556 10.5621 9.33366 11.9187 9.33366 13.3332C9.33366 14.7477 9.89556 16.1042 10.8958 17.1044C11.896 18.1046 13.2525 18.6665 14.667 18.6665ZM22.667 7.99984C23.3742 7.99984 24.0525 7.71889 24.5526 7.21879C25.0527 6.71869 25.3337 6.04041 25.3337 5.33317C25.3337 4.62593 25.0527 3.94765 24.5526 3.44755C24.0525 2.94746 23.3742 2.6665 22.667 2.6665C21.9597 2.6665 21.2815 2.94746 20.7814 3.44755C20.2813 3.94765 20.0003 4.62593 20.0003 5.33317C20.0003 6.04041 20.2813 6.71869 20.7814 7.21879C21.2815 7.71889 21.9597 7.99984 22.667 7.99984Z" fill="#555555" stroke="white" stroke-width="2" stroke-linecap="round" stroke-linejoin="round"/>
<path d="M7.33398 7.33301L10.0007 9.99967M20.0007 7.99967L18.6673 9.33301M22.6673 22.333L18.6673 17.333M9.33398 20.6663L12.0007 17.9997" stroke="white" stroke-width="2" stroke-linecap="round" stroke-linejoin="round"/>
</mask>
<g mask="url(#mask0_150_452)">
<path d="M0 0H32V32H0V0Z" fill="#FFAE43"/>
</g>
</svg>
