<?xml version="1.0" encoding="UTF-8" standalone="no"?>
<svg
   width="1540"
   height="150"
   viewBox="0 0 1540 150"
   fill="none"
   version="1.1"
   id="svg3"
   sodipodi:docname="details-top-overlay.svg"
   inkscape:version="1.4.2 (f4327f4, 2025-05-13)"
   xmlns:inkscape="http://www.inkscape.org/namespaces/inkscape"
   xmlns:sodipodi="http://sodipodi.sourceforge.net/DTD/sodipodi-0.dtd"
   xmlns="http://www.w3.org/2000/svg"
   xmlns:svg="http://www.w3.org/2000/svg">
  <defs
     id="defs3" />
  <sodipodi:namedview
     id="namedview3"
     pagecolor="#505050"
     bordercolor="#eeeeee"
     borderopacity="1"
     inkscape:showpageshadow="0"
     inkscape:pageopacity="0"
     inkscape:pagecheckerboard="0"
     inkscape:deskcolor="#505050"
     inkscape:zoom="0.57564935"
     inkscape:cx="559.3683"
     inkscape:cy="157.21376"
     inkscape:window-width="1920"
     inkscape:window-height="1051"
     inkscape:window-x="-9"
     inkscape:window-y="-9"
     inkscape:window-maximized="1"
     inkscape:current-layer="svg3" />
  <path
     opacity="0.2"
     d="m 202.5,35.5 c -165.6,-44.8 -219,-18.6667 -225,0 v -248 l 1557.5412,1.73717 5.4704,258.18274 C 1441.5116,9.9199098 1096.1,-36.5 844.5,53.5 530,166 409.5,91.5 202.5,35.5 Z"
     fill="#ffae43"
     id="path1"
     sodipodi:nodetypes="sccccss" />
  <path
     opacity="0.2"
     d="M 651.5,96 C 366.88,40.7429 136.1,89.9033 2.53201e-4,111.899 L 0,-185 l 1534.6757,11.2916 6.0801,213.251716 C 1465.0758,85.368616 1112.5,185.5 651.5,96 Z"
     fill="#ffae43"
     id="path2"
     sodipodi:nodetypes="sccccs" />
  <path
     opacity="0.2"
     d="M 397,109 C 195.4,215.4 25,64.6667 -35,-24 v -263 h 1570 l 5.2973,335.153545 C 1443.5873,215.65355 1197.5,145 948,61.5 698.5,-22 649,-24 397,109 Z"
     fill="#ffae43"
     id="path3"
     sodipodi:nodetypes="sccccss" />
</svg>
