<svg width="235" height="235" viewBox="0 0 235 235" fill="none" xmlns="http://www.w3.org/2000/svg">
    <g clip-path="url(#xu05iwzz7a)">
        <path opacity=".1" d="M233.922 155.448c-6.418-32.357-44.022-58.217-51.356-91.934-13.33-42.898-57.267-49.68-85.818-31.05C51.51 61.984 99.77 69.31 11.071 139.153c-21.902 17.246-14.923 93.373 53.979 75.902 37.08-9.402 48.352-10.721 65.031-12.27 42.039-3.901 114.616 6.977 103.841-47.337z" fill="#17316A"/>
        <path d="m183.702 163.557-64.976 34.307-64.878-34.307v-51.805h129.854v51.805z" fill="#fff"/>
        <path d="M118.725 198.39a.52.52 0 0 1-.246-.062l-64.876-34.306a.527.527 0 0 1-.28-.463v-51.807a.524.524 0 0 1 .526-.526h129.853a.526.526 0 0 1 .526.526v51.805a.528.528 0 0 1-.281.463l-64.976 34.307a.526.526 0 0 1-.246.063zm-64.351-35.149 64.351 34.028 64.45-34.029v-50.962H54.374v50.963z" fill="#041740"/>
        <path d="m183.702 100.635-64.976-34.306 29.197-14.07 64.976 34.308-29.197 14.068z" fill="#fff"/>
        <path d="M183.702 101.161a.535.535 0 0 1-.246-.06L118.48 66.794a.526.526 0 0 1 .017-.94l29.198-14.07a.52.52 0 0 1 .474.01L213.145 86.1a.532.532 0 0 1 .281.475.525.525 0 0 1-.298.464l-29.198 14.069a.528.528 0 0 1-.228.052zm-63.809-34.812 63.82 33.696 28.019-13.501-63.82-33.695-28.019 13.5z" fill="#041740"/>
        <path d="m53.847 100.635 64.976-34.306-29.197-14.07-64.977 34.308 29.198 14.068z" fill="#fff"/>
        <path d="M53.847 101.161a.531.531 0 0 1-.228-.052l-29.196-14.07a.526.526 0 0 1-.018-.938l64.977-34.307a.524.524 0 0 1 .474-.01l29.198 14.07a.52.52 0 0 1 .297.465.52.52 0 0 1-.28.475L54.095 101.1a.52.52 0 0 1-.248.06zm-28.03-14.616 28.02 13.501 63.819-33.696-28.02-13.5-63.819 33.695z" fill="#041740"/>
        <path d="m53.847 100.636 64.977 34.307-33.409 18.278-64.976-34.307 33.408-18.278z" fill="#fff"/>
        <path d="M85.415 153.747a.526.526 0 0 1-.246-.061l-64.976-34.307a.531.531 0 0 1-.28-.461.523.523 0 0 1 .273-.465l33.409-18.279a.528.528 0 0 1 .498-.003l64.976 34.307a.523.523 0 0 1 .208.731.53.53 0 0 1-.201.195l-33.408 18.278a.52.52 0 0 1-.253.065zM21.55 118.906l63.86 33.717 32.302-17.673-63.86-33.717-32.302 17.673z" fill="#041740"/>
        <path d="m183.702 100.636-64.976 34.307 33.408 18.278 64.976-34.307-33.408-18.278z" fill="#fff"/>
        <path d="M152.135 153.747a.524.524 0 0 1-.253-.065l-33.408-18.278a.523.523 0 0 1-.197-.734.52.52 0 0 1 .203-.192l64.977-34.307a.525.525 0 0 1 .498.003l33.409 18.279a.531.531 0 0 1 .273.465.522.522 0 0 1-.28.461l-64.976 34.307a.527.527 0 0 1-.246.061zm-32.297-18.797 32.302 17.673L216 118.906l-32.302-17.673-63.86 33.717z" fill="#041740"/>
        <path d="m118.823 66.328-64.976 34.307 64.878 34.306 64.976-34.306-64.878-34.307zM119.251 134.941h-1.052v62.923h1.052v-62.923z" fill="#041740"/>
        <path d="M82.32 97.521a.42.42 0 0 1-.343-.665c.078-.11 7.688-11.108-.807-21.135a16.003 16.003 0 0 0-12.252-5.69h-.114c.807 2.802.663 5.294-.48 7.205a5.324 5.324 0 0 1-4.918 2.702 4.229 4.229 0 0 1-3.654-2.842c-.935-2.436.042-4.799 2.615-6.321a12.424 12.424 0 0 1 5.301-1.525 22.43 22.43 0 0 0-2.344-4.555c-3.067-4.683-8.658-7.925-15.338-8.894-5.662-.822-11.088.145-13.826 2.463a.42.42 0 1 1-.544-.643c2.913-2.466 8.6-3.509 14.49-2.652 6.92 1.005 12.723 4.382 15.923 9.267a22.849 22.849 0 0 1 2.513 4.974 16.838 16.838 0 0 1 13.268 5.969c8.924 10.532.934 22.051.852 22.166a.42.42 0 0 1-.342.176zM67.942 70.062a11.718 11.718 0 0 0-5.144 1.438c-2.221 1.314-3.044 3.244-2.258 5.295a3.413 3.413 0 0 0 2.94 2.305 4.494 4.494 0 0 0 4.123-2.296c1.049-1.755 1.145-4.088.337-6.742h.002zM28.893 65.05a2.868 2.868 0 0 1-3.402-4 2.867 2.867 0 1 1 3.402 4zm-1.4-4.677a2.018 2.018 0 1 0 1.166 3.863 2.018 2.018 0 0 0-1.166-3.863zM28.888 58.455a2.864 2.864 0 0 1-3.63-3.289 2.861 2.861 0 0 1 3.895-2.103 2.864 2.864 0 0 1-.265 5.392zm-1.398-4.678a2.02 2.02 0 1 0 1.158 3.872 2.02 2.02 0 0 0-1.158-3.872z" fill="#041740"/>
        <path d="M28.07 61.432c2.069 0 3.745-1.12 3.745-2.5 0-1.381-1.676-2.5-3.744-2.5-2.068 0-3.744 1.119-3.744 2.5 0 1.38 1.676 2.5 3.744 2.5z" fill="#fff"/>
        <path d="M29.728 61.616a5.792 5.792 0 0 1-1.654.237c-2.336 0-4.168-1.28-4.168-2.918 0-1.637 1.827-2.922 4.162-2.924a5.233 5.233 0 0 1 2.882.8 2.39 2.39 0 0 1 .004 4.236 4.58 4.58 0 0 1-1.226.569zm-3.058-4.563c-1.125.337-1.923 1.064-1.922 1.88 0 1.127 1.523 2.078 3.326 2.076a4.387 4.387 0 0 0 2.414-.663 1.56 1.56 0 0 0-.003-2.835 4.38 4.38 0 0 0-2.414-.66 4.886 4.886 0 0 0-1.4.202z" fill="#041740"/>
        <path d="m28.99 61.356-.09-4.862-1.208-.049-.085 4.968 1.382-.057zM23.103 59.99a.387.387 0 1 0 0-.773.387.387 0 0 0 0 .773zM23.405 57.922a.386.386 0 1 0 0-.773.386.386 0 0 0 0 .773zM148.482 73.245a.423.423 0 0 1-.403-.298 41.754 41.754 0 0 1-1.097-16.004c1.088-7.83 5.408-18.105 19.803-22.605a37.203 37.203 0 0 1 6.21-1.423c.678-4.235 3.259-8.83 9.029-12 13.711-7.53 22.973-.773 23.065-.704a.423.423 0 0 1 .084.589.422.422 0 0 1-.59.084c-.087-.066-8.938-6.49-22.153.77-5.392 2.962-7.86 7.214-8.562 11.16 6.349-.624 9.39 1.493 10.754 3.092a6.52 6.52 0 0 1 .975 7.13 5.091 5.091 0 0 1-4.984 2.908c-3.546-.208-6.48-3.19-7.475-7.597a14.319 14.319 0 0 1-.258-4.547 36.027 36.027 0 0 0-5.843 1.344c-11.22 3.507-17.686 10.881-19.222 21.917a40.81 40.81 0 0 0 1.069 15.642.42.42 0 0 1-.402.544v-.002zm25.256-39.55c-.175 1.49-.1 3 .222 4.466.91 4.032 3.541 6.757 6.703 6.942a4.288 4.288 0 0 0 4.18-2.441 5.685 5.685 0 0 0-.862-6.209c-1.969-2.31-5.562-3.242-10.243-2.758zM214.898 24.465a3.007 3.007 0 1 1 2.93-2.314 3.015 3.015 0 0 1-2.93 2.314zm.006-5.171a2.163 2.163 0 0 0-2.042 1.444 2.166 2.166 0 1 0 2.042-1.444zM213.629 31.335a3.017 3.017 0 0 1-3.011-2.853 3.016 3.016 0 1 1 3.011 2.853zm.011-5.171a2.156 2.156 0 0 0-1.783.943 2.152 2.152 0 1 0 1.783-.943z" fill="#041740"/>
        <path d="M218.152 25.695c.265-1.438-1.265-2.926-3.419-3.323-2.153-.397-4.114.446-4.379 1.884-.266 1.438 1.265 2.925 3.418 3.323 2.153.397 4.114-.447 4.38-1.884z" fill="#fff"/>
        <path d="M214.833 28.099c-.382 0-.762-.036-1.137-.106a5.519 5.519 0 0 1-2.834-1.383 2.704 2.704 0 0 1-.922-2.43 2.695 2.695 0 0 1 1.729-1.94 5.874 5.874 0 0 1 5.974 1.102 2.704 2.704 0 0 1 .922 2.43 2.696 2.696 0 0 1-1.729 1.94 5.09 5.09 0 0 1-2.003.387zm-1.164-5.404a4.236 4.236 0 0 0-1.667.318 1.899 1.899 0 0 0-1.234 1.32 1.89 1.89 0 0 0 .681 1.674 5.04 5.04 0 0 0 5.053.932 1.895 1.895 0 0 0 1.234-1.32 1.891 1.891 0 0 0-.681-1.673 4.672 4.672 0 0 0-2.401-1.16 5.454 5.454 0 0 0-.983-.091h-.002z" fill="#041740"/>
        <path d="m213.766 22.275-.847 5.08 1.25.284 1.047-5.156-1.45-.208zM218.842 27.74a.41.41 0 1 0 0-.82.41.41 0 0 0 0 .82zM219.556 25.645a.409.409 0 1 0 0-.819.409.409 0 0 0 0 .819z" fill="#041740"/>
    </g>
    <defs>
        <clipPath id="xu05iwzz7a">
            <path fill="#fff" d="M0 0h235v235H0z"/>
        </clipPath>
    </defs>
</svg>
