<?xml version="1.0" encoding="UTF-8" standalone="no"?>
<svg
   width="1440"
   height="398"
   viewBox="0 0 1440 493"
   fill="none"
   version="1.1"
   id="svg7"
   sodipodi:docname="get-involve-bg-overlay.svg"
   inkscape:version="1.4.2 (f4327f4, 2025-05-13)"
   xmlns:inkscape="http://www.inkscape.org/namespaces/inkscape"
   xmlns:sodipodi="http://sodipodi.sourceforge.net/DTD/sodipodi-0.dtd"
   xmlns="http://www.w3.org/2000/svg"
   xmlns:svg="http://www.w3.org/2000/svg">
  <defs
     id="defs7" />
  <sodipodi:namedview
     id="namedview7"
     pagecolor="#505050"
     bordercolor="#eeeeee"
     borderopacity="1"
     inkscape:showpageshadow="0"
     inkscape:pageopacity="0"
     inkscape:pagecheckerboard="0"
     inkscape:deskcolor="#505050"
     inkscape:zoom="0.87062522"
     inkscape:cx="619.09532"
     inkscape:cy="252.11767"
     inkscape:window-width="1920"
     inkscape:window-height="1051"
     inkscape:window-x="-9"
     inkscape:window-y="-9"
     inkscape:window-maximized="1"
     inkscape:current-layer="svg7" />
  <rect
     x="-200"
     y="0"
     width="1940"
     height="398"
     fill="#00000044"
     id="rect1" />
  <circle
     cy="228"
     r="42"
     fill="#F8F5F1"
     fill-opacity="0.1"
     id="circle1" />
  <path
     d="M-3.5 482C119.833 391.166 472.9 274.3 898.5 533.5L-3.5 482Z"
     fill="#F8F5F1"
     fill-opacity="0.2"
     id="path1" />
  <path
     d="M422 481.619C545.333 390.786 898.4 273.919 1324 533.119L422 481.619Z"
     fill="#F8F5F1"
     fill-opacity="0.1"
     id="path2" />
  <path
     d="M-427 482.619C-303.667 391.786 49.4 274.919 475 534.119L-427 482.619Z"
     fill="#F8F5F1"
     fill-opacity="0.2"
     id="path3" />
  <path
     d="m 758.49711,622.93929 c 113.723,-120.896 475.68499,-336.706 1013.75499,-232.782 z"
     fill="#f8f5f1"
     fill-opacity="0.2"
     id="path4" />
  <path
     d="M-253 472.945C-86.3222 326.458 390.827 137.986 966 556L-253 472.945Z"
     fill="#F8F5F1"
     fill-opacity="0.15"
     id="path5" />
  <circle
     cx="764"
     cy="332"
     r="31"
     fill="#F8F5F1"
     fill-opacity="0.1"
     id="circle5" />
  <circle
     cx="877.5"
     cy="172.5"
     r="21.5"
     fill="#F8F5F1"
     fill-opacity="0.1"
     id="circle6" />
  <circle
     cx="1295.5"
     cy="55.5"
     r="55.5"
     fill="#F8F5F1"
     fill-opacity="0.1"
     id="circle7" />
  <path
     style="fill:#f8f5f1;fill-opacity:1;stroke:#000000;stroke-width:0;stroke-linecap:round;stroke-linejoin:round;stroke-dasharray:none;paint-order:markers stroke fill"
     d="m -171.8593,474.85346 c 119.970397,-26.61241 209.468206,-40.84339 443.83868,-50.93348 173.53584,-7.47105 315.97965,38.18946 669.80275,42.31315 215.20107,2.5081 539.37157,-30.70734 669.78257,-43.68048 0.1952,4.2245 0.3632,70.49339 0.3632,70.49339 l -1783.66144,-0.14663 c 0,0 -0.0899,-12.48466 -0.12576,-18.04595 z"
     id="path7"
     sodipodi:nodetypes="csscccc" />
</svg>
