<svg width="200" height="200" viewBox="0 0 200 200" fill="none" xmlns="http://www.w3.org/2000/svg">
    <g clip-path="url(#53ooqjjn7a)">
        <path d="M68.358 70.336 44.59 166.097a19.637 19.637 0 0 0 8.677 21.408c9.066 5.638 24.054 11.741 46.974 12.441 24.295.741 40.457-6.238 50.014-12.573a19.645 19.645 0 0 0 8.201-21.102l-23.811-95.935" fill="#F4F4F4"/>
        <path d="M101.501 74.784c31.511 0 57.056-8.615 57.056-19.241 0-10.627-25.545-19.241-57.056-19.241-31.51 0-57.056 8.614-57.056 19.24 0 10.627 25.545 19.242 57.056 19.242z" fill="#041740"/>
        <path d="M101.501 75.103c-15.274 0-29.638-2.008-40.446-5.654-10.917-3.681-16.93-8.62-16.93-13.907 0-5.288 6.012-10.227 16.93-13.908 10.808-3.645 25.172-5.654 40.446-5.654 15.275 0 29.638 2.008 40.447 5.654 10.916 3.681 16.929 8.62 16.929 13.907 0 5.288-6.012 10.227-16.929 13.908-10.809 3.646-25.173 5.654-40.447 5.654zm0-38.482c-15.206 0-29.498 1.995-40.243 5.618-10.636 3.587-16.494 8.312-16.494 13.303 0 4.992 5.858 9.716 16.494 13.303 10.745 3.624 25.037 5.619 40.243 5.619 15.207 0 29.498-1.995 40.243-5.619 10.636-3.587 16.494-8.311 16.494-13.303 0-4.991-5.858-9.716-16.494-13.303-10.745-3.623-25.036-5.618-40.243-5.618z" fill="#041740"/>
        <path d="M101.501 67.454c41.402 0 74.964-9.233 74.964-20.623s-33.562-20.623-74.964-20.623c-41.401 0-74.964 9.233-74.964 20.623S60.1 67.454 101.501 67.454z" fill="#17316A"/>
        <path d="M101.501 67.773c-20.051 0-38.907-2.15-53.092-6.052-14.31-3.937-22.191-9.225-22.191-14.891 0-5.667 7.88-10.954 22.191-14.892 14.185-3.902 33.04-6.051 53.092-6.051s38.907 2.149 53.093 6.051c14.31 3.937 22.191 9.226 22.191 14.892 0 5.666-7.881 10.953-22.191 14.89-14.186 3.904-33.041 6.053-53.093 6.053zm0-41.246c-19.996 0-38.79 2.141-52.923 6.029-6.853 1.885-12.228 4.077-15.976 6.515-3.812 2.48-5.746 5.09-5.746 7.76 0 2.669 1.933 5.28 5.746 7.76 3.748 2.437 9.123 4.629 15.976 6.514 14.132 3.889 32.926 6.03 52.923 6.03s38.791-2.142 52.923-6.03c6.853-1.885 12.228-4.077 15.976-6.515 3.813-2.48 5.746-5.09 5.746-7.76 0-2.669-1.933-5.28-5.746-7.76-3.748-2.437-9.123-4.63-15.976-6.514-14.132-3.888-32.927-6.028-52.923-6.028v-.001z" fill="#041740"/>
        <path d="M135.993 34.81c0 9.118-15.801 11.265-32.279 11.656-17.952.425-36.704-2.678-36.704-11.655a34.492 34.492 0 0 1 68.984 0h-.001z" fill="#fff"/>
        <path d="M131.517 33.006a.317.317 0 0 1-.319-.31 29.209 29.209 0 0 0-1.913-9.563.318.318 0 1 1 .596-.229 29.831 29.831 0 0 1 1.955 9.773.317.317 0 0 1-.309.329h-.01zM126.747 17.78a.318.318 0 0 1-.268-.145A29.503 29.503 0 0 0 108.2 5a.32.32 0 0 1-.235-.378.318.318 0 0 1 .371-.245 30.148 30.148 0 0 1 18.678 12.909.32.32 0 0 1-.267.494z" fill="#041740"/>
        <path d="M100.37 46.824c-15.25 0-26.86-2.564-31.408-7.004-1.508-1.472-2.272-3.158-2.272-5.01a34.812 34.812 0 1 1 69.622 0c0 4.301-3.429 7.466-10.191 9.407-5.203 1.494-12.53 2.334-22.399 2.568-1.135.026-2.253.04-3.352.04zM101.5.637A34.211 34.211 0 0 0 67.328 34.81c0 1.673.7 3.205 2.08 4.552 4.754 4.644 17.575 7.18 34.298 6.784 13.724-.324 31.969-1.853 31.969-11.335A34.213 34.213 0 0 0 101.501.638h-.001z" fill="#041740"/>
        <path d="M45.685 49.59a4.479 4.479 0 1 0 0-8.957 4.479 4.479 0 0 0 0 8.958z" fill="#fff"/>
        <path d="M45.685 49.91a4.798 4.798 0 1 1 0-9.595 4.798 4.798 0 0 1 0 9.595zm0-8.958a4.16 4.16 0 1 0 0 8.32 4.16 4.16 0 0 0 0-8.32z" fill="#041740"/>
        <path d="M101.501 62.418a4.479 4.479 0 1 0 0-8.958 4.479 4.479 0 0 0 0 8.958z" fill="#fff"/>
        <path d="M101.502 62.737a4.8 4.8 0 1 1 4.798-4.798 4.804 4.804 0 0 1-4.798 4.798zm0-8.958a4.16 4.16 0 1 0 0 8.321 4.16 4.16 0 0 0 0-8.32z" fill="#041740"/>
        <path d="M157.308 49.59a4.48 4.48 0 1 0 0-8.958 4.48 4.48 0 0 0 0 8.959z" fill="#fff"/>
        <path d="M157.308 49.91a4.798 4.798 0 1 1 4.798-4.798 4.805 4.805 0 0 1-4.798 4.798zm0-8.958a4.164 4.164 0 0 0-3.844 2.568 4.155 4.155 0 0 0-.236 2.403 4.154 4.154 0 0 0 3.268 3.269 4.158 4.158 0 0 0 3.752-7.02 4.165 4.165 0 0 0-2.94-1.22z" fill="#041740"/>
        <path d="M133.505 57.94a4.48 4.48 0 1 0 0-8.96 4.48 4.48 0 0 0 0 8.96z" fill="#fff"/>
        <path d="M133.505 58.259a4.798 4.798 0 1 1 0-9.597 4.798 4.798 0 0 1 0 9.597zm0-8.959a4.16 4.16 0 1 0 0 8.32 4.16 4.16 0 0 0 0-8.32z" fill="#041740"/>
        <path d="M69.498 58.55a4.479 4.479 0 1 0 0-8.958 4.479 4.479 0 0 0 0 8.958z" fill="#fff"/>
        <path d="M69.498 58.869a4.799 4.799 0 1 1 0-9.597 4.799 4.799 0 0 1 0 9.597zm0-8.958a4.16 4.16 0 1 0-.004 8.318 4.16 4.16 0 0 0 .004-8.318z" fill="#041740"/>
        <path d="M148.995 30.875a4.48 4.48 0 0 1-8.724-1.7c3.06.512 5.974 1.078 8.724 1.7z" fill="#fff"/>
        <path d="M144.74 34.27a4.805 4.805 0 0 1-4.798-4.8c0-.106.004-.211.011-.316l.023-.352.348.058c3.076.514 6.017 1.087 8.742 1.702l.343.078-.11.334a4.793 4.793 0 0 1-4.559 3.295zm-4.159-4.719a4.166 4.166 0 0 0 3.365 4.003 4.162 4.162 0 0 0 4.621-2.45 157.883 157.883 0 0 0-7.986-1.553z" fill="#041740"/>
        <path d="M62.26 29.471a4.48 4.48 0 0 1-8.7 1.503c2.74-.626 5.644-1.2 8.694-1.718.004.07.006.142.006.215z" fill="#fff"/>
        <path d="M57.782 34.269a4.811 4.811 0 0 1-4.523-3.188l-.12-.338.35-.08a157.558 157.558 0 0 1 8.71-1.722l.351-.06.022.356a4.804 4.804 0 0 1-4.79 5.032zm-3.784-3.067a4.16 4.16 0 0 0 7.94-1.568c-2.751.473-5.418 1-7.94 1.568z" fill="#041740"/>
        <path d="m108.469 185.83-40.944-23.324 31.685-55.622 28.312 16.128 5.436 19.828-24.489 42.99z" fill="#fff"/>
        <path opacity=".3" d="M115.111 158.125a2.439 2.439 0 1 0 0-4.878 2.439 2.439 0 0 0 0 4.878zM89.373 145.279a2.439 2.439 0 1 0 0-4.878 2.439 2.439 0 0 0 0 4.878z" fill="#17316A"/>
        <path d="m108.588 186.265-41.498-23.64 32-56.177 28.705 16.353 5.506 20.083-24.713 43.381zm-40.627-23.879 40.389 23.008 24.267-42.597-5.367-19.573-27.92-15.905-31.37 55.067z" fill="#041740"/>
        <path opacity=".3" d="m127.522 123.012-7.196 12.632 12.632 7.196-5.436-19.828z" fill="#17316A"/>
        <path d="M132.958 143.159a.324.324 0 0 1-.158-.041l-12.632-7.196a.318.318 0 0 1-.119-.436l7.196-12.633a.318.318 0 0 1 .585.073l5.436 19.828a.323.323 0 0 1-.054.278.322.322 0 0 1-.254.125v.002zm-12.196-7.634 11.684 6.656-5.028-18.342-6.656 11.686zM97.57 139.632a1.925 1.925 0 1 0 0-3.85 1.925 1.925 0 0 0 0 3.85zM115.625 147.841a1.924 1.924 0 1 0 0-3.849 1.924 1.924 0 0 0 0 3.849zM107.444 159.647a.322.322 0 0 1-.319-.311 9.044 9.044 0 0 0-8.854-8.807 9.054 9.054 0 0 0-4.422 1.05.321.321 0 0 1-.358-.031.328.328 0 0 1-.116-.219.32.32 0 0 1 .175-.314 9.681 9.681 0 0 1 9.417.197 9.694 9.694 0 0 1 4.796 8.107.32.32 0 0 1-.31.328h-.009zM99.245 135.737a5.458 5.458 0 0 1-2.917-.888.318.318 0 0 1-.074-.444.318.318 0 0 1 .443-.077c.025.017 1.899 1.303 3.992.504a.32.32 0 0 1 .399.427.313.313 0 0 1-.172.169c-.533.205-1.1.31-1.671.309zM118.96 144.914a.318.318 0 0 1-.105-.018c-2.692-.937-2.997-3.014-3.009-3.102a.316.316 0 0 1 .274-.359.32.32 0 0 1 .36.274c.011.075.283 1.781 2.587 2.584a.318.318 0 0 1 .209.355.316.316 0 0 1-.314.266h-.002zM12.91 70.655a.318.318 0 0 1-.319-.32v-9.008a.318.318 0 0 1 .444-.304.32.32 0 0 1 .195.304v9.009a.32.32 0 0 1-.32.319z" fill="#041740"/>
        <path d="M15.85 66.15H9.97a.32.32 0 0 1 0-.638h5.879a.32.32 0 0 1 0 .638zM166.257 120.831a.32.32 0 0 1-.319-.32v-13.703a.32.32 0 0 1 .639 0v13.703a.32.32 0 0 1-.32.32z" fill="#041740"/>
        <path d="M170.73 113.979h-8.943a.32.32 0 0 1 0-.639h8.943a.318.318 0 0 1 .226.545.32.32 0 0 1-.226.094zM188.024 77.507a.314.314 0 0 1-.226-.093.312.312 0 0 1-.093-.226v-6.852a.318.318 0 1 1 .638 0v6.852a.32.32 0 0 1-.197.295.318.318 0 0 1-.122.024z" fill="#041740"/>
        <path d="M190.26 74.081h-4.472a.318.318 0 0 1-.319-.32.32.32 0 0 1 .319-.319h4.472a.32.32 0 1 1 0 .639z" fill="#041740"/>
    </g>
    <defs>
        <clipPath id="53ooqjjn7a">
            <path fill="#fff" d="M0 0h200v200H0z"/>
        </clipPath>
    </defs>
</svg>
